<svg width="148" height="41" viewBox="0 0 148 41" fill="none" xmlns="http://www.w3.org/2000/svg">
<g clip-path="url(#clip0_4750_435)">
<path d="M147.95 10.5109H137.239V29.6691H147.95V10.5109Z" fill="#94D600"/>
<path d="M137.314 0H119.729V10.6103H137.314V0Z" fill="#55C1E9"/>
<path d="M147.95 0H137.239V10.6103H147.95V0Z" fill="black"/>
<path d="M120.03 25.4448V21.643H113.358V40.4782H120.03V34.6139C120.03 30.2654 121.987 28.2776 125.474 28.2776H126.026V21.32C122.865 21.1957 121.109 22.8606 120.03 25.4448Z" fill="black"/>
<path d="M9.10576 16.1018H0V40.4533H8.98034C17.4841 40.4533 22.4508 35.2351 22.4508 28.203V28.1533C22.4258 21.1212 17.5342 16.1018 9.10576 16.1018ZM15.7031 28.3273C15.7031 32.2533 13.0942 34.4897 9.18102 34.4897H6.54712V22.0903H9.2061C13.1193 22.0903 15.7281 24.3515 15.7281 28.2527V28.3273H15.7031Z" fill="black"/>
<path d="M33.7891 21.2455C27.7437 21.2455 23.3539 25.7182 23.3539 31.0855V31.16C23.3539 36.5024 27.6935 40.9255 33.7139 40.9255C39.7593 40.9255 44.1491 36.4527 44.1491 31.0855V31.0109C44.1742 25.6685 39.8095 21.2455 33.7891 21.2455ZM37.7274 31.16C37.7274 33.4212 36.1973 35.3345 33.7891 35.3345C31.4563 35.3345 29.7756 33.3964 29.7756 31.0855V31.0109C29.7756 28.7497 31.3057 26.8364 33.7139 26.8364C36.0468 26.8364 37.7274 28.7745 37.7274 31.0855V31.16Z" fill="black"/>
<path d="M84.9871 21.2206C82.278 21.2206 80.522 22.7115 79.2929 24.2769V21.643H66.0732L63.5146 31.1848L60.5546 21.5685H55.0359L52.1261 31.1103L49.6427 21.643H43.0956L48.8902 40.6024H54.6095L57.7702 30.8121L60.8556 40.6024H66.6251L70.7891 27.1594H72.6203V40.4533H79.2929V30.2654C79.2929 28.203 80.4969 27.1097 82.1024 27.1097C83.6827 27.1097 84.7613 28.2279 84.7613 30.2654V40.4533H91.4339V28.1533C91.459 23.8794 89.0258 21.2206 84.9871 21.2206Z" fill="black"/>
<path d="M102.321 21.2206C96.7017 21.2206 92.7383 25.5691 92.7383 31.0606V31.1351C92.7383 36.9745 96.9525 40.9254 102.923 40.9254C106.71 40.9254 109.344 39.3848 111.176 37.0988L107.488 34.0672C106.108 35.3842 104.854 35.9806 103.274 35.9806C101.192 35.9806 99.6868 34.9369 99.16 32.8745H111.878C111.903 32.4272 111.903 31.9303 111.903 31.5079C111.903 25.9915 108.893 21.2206 102.321 21.2206ZM99.0596 29.4951C99.4108 27.4327 100.615 26.0909 102.371 26.0909C104.202 26.0909 105.431 27.4079 105.682 29.4951H99.0596Z" fill="black"/>
</g>
<defs>
<clipPath id="clip0_4750_435">
<rect width="148" height="41" fill="white"/>
</clipPath>
</defs>
</svg>
