<svg width="244" height="57" viewBox="0 0 244 57" fill="none" xmlns="http://www.w3.org/2000/svg"><path d="M67.6529 48.3972V50.6926H67.421C67.2332 49.9787 66.946 49.4625 66.5373 49.1221C66.1287 48.7816 65.5874 48.6169 64.9137 48.6169C64.0411 48.6169 63.3452 48.9354 62.8261 49.5614C62.318 50.1874 62.0529 51.0221 62.0529 52.0765C62.0529 53.2187 62.318 54.1522 62.8703 54.8442C63.4115 55.5471 64.1184 55.8985 65.002 55.8985C66.217 55.8985 67.1117 55.3384 67.6971 54.2072L67.8959 54.3939C67.6419 55.0089 67.2221 55.4921 66.6367 55.8436C66.0624 56.1951 65.3997 56.3818 64.6707 56.3818C63.9748 56.3818 63.3232 56.217 62.7267 55.8875C62.1303 55.558 61.6774 55.1077 61.3571 54.5366C61.0368 53.9655 60.8711 53.3066 60.8711 52.5597C60.8711 51.3406 61.2466 50.3302 61.9977 49.5284C62.7488 48.7267 63.7097 48.3313 64.8584 48.3313C65.245 48.3313 65.731 48.3972 66.3275 48.54C66.6588 48.6169 66.8908 48.6608 67.0233 48.6608C67.2221 48.6608 67.3547 48.5839 67.443 48.4192H67.664L67.6529 48.3972Z" fill="#1c2024"></path><path d="M74.6125 51.4154H74.8444V53.2824H74.6125C74.5241 52.953 74.4247 52.7443 74.3143 52.6674C74.1928 52.5905 73.9387 52.5466 73.5411 52.5466H71.6303V55.2923C71.6303 55.49 71.6744 55.6218 71.7628 55.6987C71.8512 55.7756 71.9948 55.8195 72.2046 55.8195H73.5521C74.0381 55.8195 74.3695 55.7975 74.5573 55.7426C74.745 55.6877 74.8997 55.5889 75.0212 55.4571C75.1427 55.3143 75.2863 55.0836 75.4298 54.7651H75.6618L75.3083 56.1929H69.7415V55.9733C70.0839 55.9733 70.3159 55.8854 70.4374 55.7097C70.5589 55.5339 70.6141 55.2154 70.6141 54.7651V49.9656C70.6141 49.4933 70.5478 49.1748 70.4263 48.9991C70.3048 48.8234 70.0729 48.7355 69.7305 48.7355V48.5159H75.2973V49.8009H75.1537C75.0764 49.4384 74.9659 49.1858 74.8113 49.076C74.6677 48.9552 74.3474 48.9003 73.8504 48.9003H71.6303V52.1842H73.7841C74.0823 52.1842 74.2811 52.1292 74.3916 52.0304C74.502 51.9206 74.5794 51.7229 74.6235 51.4373" fill="#1c2024"></path><path d="M84.7585 48.5073H86.581V48.727C86.0066 48.738 85.7084 49.0784 85.7084 49.7484C85.7084 49.8033 85.7084 49.8582 85.7084 49.9241L86.095 54.6577C86.1392 55.163 86.2275 55.4924 86.3601 55.6682C86.4926 55.8329 86.7246 55.9318 87.0559 55.9647V56.1844H84.2836V55.9647C84.5818 55.9208 84.7806 55.8219 84.9021 55.6792C85.0236 55.5364 85.0899 55.3167 85.0899 55.0092C85.0899 54.9433 85.0899 54.8774 85.0899 54.8005L84.6812 49.8363L82.0303 56.1844H81.8315L79.2248 49.8582L78.794 54.5809C78.794 54.6577 78.794 54.7236 78.794 54.7895C78.794 55.4485 79.1254 55.8439 79.7992 55.9647V56.1844H77.4023V55.9647C77.7227 55.9208 77.9546 55.811 78.0982 55.6242C78.2418 55.4485 78.3412 55.0861 78.3964 54.5479L78.8603 49.2651C78.5842 48.9686 78.2528 48.7929 77.8552 48.727V48.5073H79.8102L82.2844 54.5479L84.7916 48.5073H84.7585Z" fill="#1c2024"></path><path d="M93.7062 51.4154H93.9382V53.2824H93.7062C93.6179 52.953 93.5185 52.7443 93.408 52.6674C93.2976 52.5905 93.0325 52.5466 92.6348 52.5466H90.724V55.2923C90.724 55.49 90.7682 55.6218 90.8566 55.6987C90.9449 55.7756 91.0885 55.8195 91.2984 55.8195H92.6459C93.1319 55.8195 93.4632 55.7975 93.64 55.7426C93.8277 55.6877 93.9824 55.5889 94.1039 55.4571C94.2364 55.3143 94.369 55.0836 94.5125 54.7651H94.7445L94.391 56.1929H88.8353V55.9733C89.1777 55.9733 89.4096 55.8854 89.5311 55.7097C89.6526 55.5339 89.7078 55.2154 89.7078 54.7651V49.9656C89.7078 49.4933 89.6416 49.1748 89.5201 48.9991C89.3986 48.8234 89.1666 48.7355 88.8242 48.7355V48.5159H94.38V49.8009H94.2364C94.1591 49.4384 94.0486 49.1858 93.894 49.076C93.7504 48.9552 93.4301 48.9003 92.9331 48.9003H90.713V52.1842H92.8668C93.165 52.1842 93.3638 52.1292 93.4743 52.0304C93.5847 51.9206 93.6621 51.7229 93.7062 51.4373" fill="#1c2024"></path><path d="M101.594 48.8811H100.423V54.779C100.423 55.2402 100.478 55.5587 100.589 55.7125C100.699 55.8772 100.92 55.9541 101.251 55.9541V56.1738H98.5232V55.9541C98.8656 55.9541 99.0975 55.8663 99.219 55.6796C99.3405 55.4928 99.3958 55.1853 99.3958 54.735V48.8702H98.2802C97.75 48.8702 97.3524 48.958 97.1094 49.1228C96.8664 49.2875 96.7338 49.5731 96.7007 49.9684H96.4688V48.2112H96.7007C96.9106 48.4089 97.2972 48.4967 97.8605 48.4967H101.903C102.488 48.4967 102.897 48.3979 103.129 48.2112H103.372V49.9684H103.217C103.118 49.5401 102.952 49.2546 102.698 49.1008C102.444 48.947 102.08 48.8702 101.583 48.8702" fill="#1c2024"></path><path d="M109.999 51.4154H110.231V53.2824H109.999C109.911 52.953 109.811 52.7443 109.701 52.6674C109.591 52.5905 109.325 52.5466 108.928 52.5466H107.017V55.2923C107.017 55.49 107.061 55.6218 107.15 55.6987C107.238 55.7756 107.381 55.8195 107.591 55.8195H108.939C109.425 55.8195 109.756 55.7975 109.933 55.7426C110.121 55.6877 110.275 55.5889 110.397 55.4571C110.529 55.3143 110.662 55.0836 110.806 54.7651H111.037L110.684 56.1929H105.128V55.9733C105.471 55.9733 105.714 55.8854 105.824 55.7097C105.946 55.5339 106.001 55.2154 106.001 54.7651V49.9656C106.001 49.4933 105.935 49.1748 105.813 48.9991C105.692 48.8234 105.46 48.7355 105.117 48.7355V48.5159H110.673V49.8009H110.529C110.452 49.4384 110.342 49.1858 110.187 49.076C110.043 48.9552 109.723 48.9003 109.226 48.9003H107.006V52.1842H109.16C109.458 52.1842 109.657 52.1292 109.767 52.0304C109.878 51.9206 109.955 51.7229 109.999 51.4373" fill="#1c2024"></path><path d="M115.409 52.6345H114.779V54.7432C114.779 55.1935 114.846 55.512 114.978 55.6987C115.111 55.8744 115.343 55.9623 115.663 55.9623V56.1819H112.891V55.9623C113.233 55.9623 113.465 55.8744 113.586 55.6987C113.708 55.523 113.763 55.2045 113.763 54.7542V49.9436C113.763 49.4933 113.708 49.1748 113.586 48.9991C113.465 48.8234 113.233 48.7355 112.891 48.7355V48.5159H116.061C116.845 48.5159 117.463 48.7026 117.938 49.076C118.402 49.4494 118.645 49.9327 118.645 50.5148C118.645 51.4593 118.115 52.0853 117.055 52.4038C117.287 52.5576 117.519 52.7553 117.74 53.0189C117.96 53.2824 118.259 53.7108 118.612 54.3148C119.01 54.9848 119.33 55.4241 119.562 55.6328C119.794 55.8415 120.026 55.9513 120.269 55.9733V56.1929H118.689C118.369 55.8085 117.971 55.2374 117.508 54.4796C117.011 53.6888 116.635 53.1836 116.348 52.9639C116.072 52.7443 115.762 52.6345 115.42 52.6345M115.597 48.8014H114.79V52.305H115.74C116.304 52.305 116.745 52.1402 117.077 51.8217C117.397 51.5032 117.563 51.0749 117.563 50.5367C117.563 49.9986 117.386 49.5922 117.033 49.2737C116.679 48.9552 116.204 48.7904 115.619 48.7904" fill="#1c2024"></path><path d="M124.491 48.5054V48.725C124.16 48.725 123.928 48.8129 123.806 48.9886C123.685 49.1643 123.619 49.4828 123.619 49.9441V54.7327C123.619 55.194 123.685 55.5125 123.806 55.6882C123.928 55.8639 124.16 55.9518 124.491 55.9518V56.1714H121.719V55.9518C122.061 55.9518 122.282 55.8639 122.404 55.6882C122.525 55.5125 122.591 55.194 122.591 54.7327V49.9441C122.591 49.4719 122.536 49.1534 122.415 48.9776C122.293 48.8019 122.061 48.714 121.719 48.714V48.4944H124.491V48.5054Z" fill="#1c2024"></path><path d="M131.128 51.4154H131.36V53.2824H131.128C131.04 52.953 130.94 52.7443 130.83 52.6674C130.719 52.5905 130.454 52.5466 130.057 52.5466H128.146V55.2923C128.146 55.49 128.19 55.6218 128.278 55.6987C128.367 55.7756 128.51 55.8195 128.72 55.8195H130.068C130.554 55.8195 130.885 55.7975 131.062 55.7426C131.25 55.6877 131.404 55.5889 131.526 55.4571C131.658 55.3143 131.791 55.0836 131.934 54.7651H132.166L131.813 56.1929H126.257V55.9733C126.6 55.9733 126.831 55.8854 126.953 55.7097C127.074 55.5339 127.13 55.2154 127.13 54.7651V49.9656C127.13 49.4933 127.063 49.1748 126.942 48.9991C126.82 48.8234 126.588 48.7355 126.246 48.7355V48.5159H131.802V49.8009H131.658C131.581 49.4384 131.471 49.1858 131.316 49.076C131.172 48.9552 130.852 48.9003 130.355 48.9003H128.135V52.1842H130.289C130.587 52.1842 130.786 52.1292 130.896 52.0304C131.007 51.9206 131.084 51.7229 131.128 51.4373" fill="#1c2024"></path><path d="M138.145 48.3955H138.365V50.1967H138.134C138.078 49.7024 137.902 49.3071 137.592 49.0325C137.283 48.7579 136.896 48.6151 136.421 48.6151C136.002 48.6151 135.67 48.725 135.416 48.9336C135.162 49.1423 135.03 49.4169 135.03 49.7683C135.03 50.0868 135.129 50.3834 135.35 50.647C135.56 50.9106 136.013 51.262 136.72 51.6794C137.537 52.1626 138.089 52.5909 138.365 52.9534C138.642 53.3158 138.785 53.7332 138.785 54.1945C138.785 54.7985 138.564 55.3147 138.145 55.743C137.714 56.1714 137.195 56.3801 136.598 56.3801C136.245 56.3801 135.803 56.2812 135.262 56.0945C135.041 56.0176 134.897 55.9737 134.831 55.9737C134.698 55.9737 134.61 56.0725 134.533 56.2702H134.301V54.1945H134.533C134.533 54.7656 134.721 55.2268 135.096 55.5673C135.472 55.9078 135.902 56.0835 136.388 56.0835C136.852 56.0835 137.228 55.9627 137.515 55.7101C137.802 55.4575 137.935 55.128 137.935 54.7106C137.935 54.4031 137.813 54.1066 137.581 53.821C137.349 53.5355 136.863 53.173 136.123 52.7227C135.527 52.3493 135.118 52.0638 134.919 51.8441C134.721 51.6354 134.566 51.3938 134.478 51.1412C134.378 50.8886 134.334 50.603 134.334 50.2955C134.334 49.7024 134.533 49.2302 134.919 48.8677C135.306 48.5053 135.814 48.3186 136.433 48.3186C136.775 48.3186 137.15 48.3845 137.548 48.5273C137.736 48.5932 137.868 48.6151 137.946 48.6151C138.012 48.6151 138.045 48.6042 138.067 48.5712C138.089 48.5492 138.111 48.4833 138.145 48.3955Z" fill="#1c2024"></path><path d="M147.887 48.8811H146.717V54.779C146.717 55.2402 146.772 55.5587 146.882 55.7125C146.993 55.8772 147.214 55.9541 147.545 55.9541V56.1738H144.817V55.9541C145.159 55.9541 145.391 55.8663 145.513 55.6796C145.634 55.4928 145.7 55.1853 145.7 54.735V48.8702H144.585C144.055 48.8702 143.657 48.958 143.414 49.1228C143.171 49.2875 143.039 49.5731 143.005 49.9684H142.773V48.2112H143.005C143.215 48.4089 143.602 48.4967 144.165 48.4967H148.208C148.793 48.4967 149.202 48.3979 149.434 48.2112H149.677V49.9684H149.522C149.423 49.5401 149.257 49.2546 149.003 49.1008C148.749 48.947 148.384 48.8702 147.887 48.8702" fill="#1c2024"></path><path d="M153.917 52.6345H153.287V54.7432C153.287 55.1935 153.353 55.512 153.486 55.6987C153.619 55.8744 153.85 55.9623 154.171 55.9623V56.1819H151.398V55.9623C151.741 55.9623 151.973 55.8744 152.094 55.6987C152.216 55.523 152.271 55.2045 152.271 54.7542V49.9436C152.271 49.4933 152.216 49.1748 152.094 48.9991C151.973 48.8234 151.741 48.7355 151.398 48.7355V48.5159H154.568C155.353 48.5159 155.971 48.7026 156.446 49.076C156.91 49.4494 157.142 49.9327 157.142 50.5148C157.142 51.4593 156.612 52.0853 155.551 52.4038C155.783 52.5576 156.015 52.7553 156.236 53.0189C156.457 53.2824 156.755 53.7108 157.109 54.3148C157.506 54.9848 157.827 55.4241 158.059 55.6328C158.291 55.8415 158.523 55.9513 158.766 55.9733V56.1929H157.186C156.866 55.8085 156.468 55.2374 156.004 54.4796C155.507 53.6888 155.132 53.1836 154.845 52.9639C154.568 52.7443 154.259 52.6345 153.917 52.6345ZM154.093 48.8014H153.287V52.305H154.237C154.8 52.305 155.242 52.1402 155.574 51.8217C155.894 51.5032 156.06 51.0749 156.06 50.5367C156.06 49.9986 155.883 49.5922 155.529 49.2737C155.176 48.9552 154.701 48.7904 154.116 48.7904" fill="#1c2024"></path><path d="M165.69 54.5809V49.9571C165.69 49.5068 165.634 49.1992 165.513 49.0235C165.391 48.8478 165.181 48.7489 164.872 48.738V48.5183H167.6V48.738C167.269 48.738 167.037 48.8258 166.916 49.0016C166.794 49.1773 166.728 49.4958 166.728 49.9571V54.7456C166.728 55.1959 166.794 55.5144 166.916 55.6901C167.037 55.8659 167.269 55.9647 167.6 55.9647V56.1844H165.701V55.108C164.972 55.9537 164.121 56.3711 163.127 56.3711C162.31 56.3711 161.669 56.1295 161.205 55.6462C160.741 55.163 160.509 54.526 160.509 53.7242V49.9461C160.509 49.4848 160.454 49.1663 160.333 48.9906C160.211 48.8148 159.979 48.727 159.637 48.727V48.5073H162.431V48.727C162.089 48.727 161.846 48.8148 161.724 48.9906C161.603 49.1663 161.537 49.4848 161.537 49.9351V53.823C161.537 54.4491 161.713 54.9433 162.056 55.3057C162.398 55.6682 162.884 55.8439 163.503 55.8439C164.419 55.8439 165.159 55.4156 165.712 54.5699" fill="#1c2024"></path><path d="M173.598 48.3955H173.819V50.1967H173.587C173.532 49.7024 173.355 49.3071 173.046 49.0325C172.737 48.7579 172.35 48.6151 171.875 48.6151C171.456 48.6151 171.124 48.725 170.87 48.9336C170.616 49.1423 170.495 49.4169 170.495 49.7683C170.495 50.0868 170.594 50.3834 170.815 50.647C171.025 50.9106 171.478 51.262 172.185 51.6794C173.002 52.1626 173.554 52.5909 173.83 52.9534C174.106 53.3158 174.25 53.7332 174.25 54.1945C174.25 54.7985 174.04 55.3147 173.609 55.743C173.179 56.1714 172.659 56.3801 172.063 56.3801C171.71 56.3801 171.268 56.2812 170.727 56.0945C170.506 56.0176 170.362 55.9737 170.296 55.9737C170.163 55.9737 170.075 56.0725 169.998 56.2702H169.766V54.1945H169.998C169.998 54.7656 170.185 55.2268 170.561 55.5673C170.925 55.9078 171.367 56.0835 171.853 56.0835C172.317 56.0835 172.693 55.9627 172.98 55.7101C173.267 55.4575 173.4 55.128 173.4 54.7106C173.4 54.4031 173.278 54.1066 173.046 53.821C172.814 53.5355 172.328 53.173 171.588 52.7227C170.992 52.3493 170.583 52.0638 170.384 51.8441C170.185 51.6354 170.031 51.3938 169.942 51.1412C169.843 50.8886 169.799 50.603 169.799 50.2955C169.799 49.7024 169.998 49.2302 170.384 48.8677C170.771 48.5053 171.279 48.3186 171.897 48.3186C172.24 48.3186 172.615 48.3845 173.013 48.5273C173.201 48.5932 173.333 48.6151 173.411 48.6151C173.477 48.6151 173.51 48.6042 173.532 48.5712C173.554 48.5492 173.576 48.4833 173.609 48.3955" fill="#1c2024"></path><path d="M181.009 48.8811H179.838V54.779C179.838 55.2402 179.893 55.5587 180.003 55.7125C180.114 55.8772 180.335 55.9541 180.666 55.9541V56.1738H177.938V55.9541C178.28 55.9541 178.512 55.8663 178.634 55.6796C178.755 55.4928 178.822 55.1853 178.822 54.735V48.8702H177.706C177.176 48.8702 176.778 48.958 176.535 49.1228C176.292 49.2875 176.16 49.5731 176.126 49.9684H175.895V48.2112H176.126C176.336 48.4089 176.723 48.4967 177.286 48.4967H181.329C181.914 48.4967 182.323 48.3979 182.555 48.2112H182.798V49.9684H182.643C182.544 49.5401 182.378 49.2546 182.124 49.1008C181.87 48.947 181.506 48.8702 181.009 48.8702" fill="#1c2024"></path><path d="M69.7588 9.05581H69.5821C69.4827 8.27603 69.1403 7.59509 68.5548 7.00201C67.9694 6.41992 67.2073 6.12338 66.2464 6.12338C65.6168 6.12338 65.0645 6.26616 64.5785 6.56269C64.0926 6.85923 63.717 7.25462 63.4519 7.75983C63.1868 8.26504 63.0543 8.83615 63.0543 9.49513C63.0543 10.0003 63.1316 10.4397 63.2862 10.835C63.4409 11.2194 63.6728 11.5709 63.9821 11.8674C64.2914 12.164 64.6559 12.4495 65.0756 12.7021C65.4953 12.9657 66.0586 13.2842 66.7655 13.6796C67.9584 14.3276 68.8752 14.9756 69.5379 15.6236C70.2006 16.2716 70.532 17.1502 70.532 18.2814C70.532 18.9624 70.3552 19.6323 70.0018 20.2693C69.6483 20.9064 69.1071 21.4335 68.3892 21.8399C67.6712 22.2463 66.7766 22.4549 65.7162 22.4549C65.0424 22.4549 64.457 22.3781 63.9379 22.2463C63.4298 22.1035 62.8997 21.9058 62.3805 21.6532C62.1596 21.5763 62.005 21.5434 61.9277 21.5434C61.773 21.5434 61.6736 21.5983 61.6294 21.7081C61.5853 21.8179 61.519 22.0486 61.4417 22.422H61.2539V18.3803H61.4417C61.7068 19.5664 62.2148 20.4561 62.977 21.0601C63.7391 21.6642 64.6669 21.9717 65.7604 21.9717C66.5777 21.9717 67.2405 21.8179 67.7375 21.5104C68.2345 21.2029 68.5769 20.8295 68.7647 20.3902C68.9525 19.9508 69.0519 19.5115 69.0519 19.0722C69.0519 18.1716 68.7758 17.4248 68.2235 16.8537C67.6712 16.2826 66.8318 15.6895 65.6941 15.0964C64.9209 14.6791 64.3355 14.3496 63.96 14.1079C63.5845 13.8773 63.2089 13.5698 62.8223 13.1964C62.4358 12.8229 62.1265 12.3836 61.9056 11.8784C61.6736 11.3732 61.5632 10.7911 61.5632 10.1321C61.5632 9.37432 61.762 8.64944 62.1707 7.95752C62.5683 7.2656 63.1427 6.70547 63.8827 6.28812C64.6227 5.87077 65.4622 5.6621 66.401 5.6621C67.1079 5.6621 67.8479 5.78291 68.588 6.02453C68.7095 6.07945 68.8641 6.11239 69.0629 6.11239C69.3059 6.11239 69.4716 5.94765 69.56 5.61816H69.7367V9.06679L69.7588 9.05581Z" fill="#1c2024"></path><path d="M90.0642 14.0427C90.0642 15.5584 89.6886 16.9532 88.9376 18.2602C88.1865 19.5562 87.1593 20.5885 85.8559 21.3574C84.5526 22.1262 83.1167 22.5106 81.5372 22.5106C79.9577 22.5106 78.4998 22.1262 77.1743 21.3574C75.8489 20.5885 74.8106 19.5452 74.0595 18.2492C73.2974 16.9422 72.9219 15.5144 72.9219 13.9768C72.9219 12.7907 73.1428 11.6814 73.5956 10.649C74.0485 9.60565 74.6781 8.70505 75.4844 7.92527C76.2907 7.15646 77.2185 6.5524 78.2568 6.13505C79.295 5.70672 80.3775 5.49805 81.5041 5.49805C82.6307 5.49805 83.68 5.69574 84.6962 6.10211C85.7123 6.50847 86.6291 7.09057 87.4464 7.85937C88.2528 8.62817 88.8934 9.53975 89.3573 10.5831C89.8212 11.6375 90.0531 12.7907 90.0531 14.0427M88.1313 14.0867C88.1313 11.945 87.7447 10.2646 86.9825 9.05651C86.2204 7.84839 85.3368 7.03565 84.3427 6.6183C83.3486 6.20095 82.4098 6.00326 81.5262 6.00326C80.8414 6.00326 80.1345 6.11309 79.4055 6.33275C78.6765 6.5524 77.9585 6.95877 77.2627 7.55185C76.5668 8.14493 75.9925 8.97962 75.5507 10.045C75.0978 11.1213 74.8769 12.4392 74.8769 14.0208C74.8769 15.4046 75.0647 16.6127 75.4292 17.6451C75.8047 18.6775 76.3128 19.5232 76.9645 20.1712C77.6161 20.8192 78.3341 21.2915 79.1072 21.577C79.8915 21.8626 80.6978 22.0053 81.5483 22.0053C82.2993 22.0053 83.0725 21.8735 83.8457 21.61C84.6189 21.3464 85.3258 20.9071 85.9664 20.303C86.607 19.6989 87.1261 18.8862 87.5238 17.8538C87.9214 16.8214 88.1202 15.5584 88.1202 14.0757" fill="#1c2024"></path><path d="M108.655 22.0824H105.253V19.4135L105.198 19.3696C104.723 20.4569 104.027 21.2477 103.088 21.7529C102.149 22.2581 101.177 22.5107 100.15 22.5107C99.0014 22.5107 97.9631 22.2361 97.0353 21.687C96.1185 21.1378 95.4337 20.4679 95.003 19.6661C94.6937 19.095 94.5059 18.5019 94.4176 17.8869C94.3403 17.2719 94.2961 16.6348 94.2961 15.9649V7.93639C94.2961 7.45314 94.1967 7.04678 94.0089 6.71729C93.8101 6.3878 93.3462 6.19011 92.6172 6.1352V5.94849H97.7091V6.1352C96.958 6.22306 96.483 6.44272 96.2732 6.78319C96.0633 7.12366 95.9639 7.50806 95.9639 7.93639V15.8331C95.9639 17.4366 96.1296 18.6228 96.461 19.3916C96.8144 20.2043 97.3446 20.8523 98.0404 21.3026C98.7473 21.7639 99.5426 21.9945 100.437 21.9945C100.813 21.9945 101.255 21.9286 101.774 21.7968C102.282 21.665 102.768 21.4454 103.221 21.1378C104.568 20.2263 105.231 18.7655 105.231 16.7447V7.94737C105.231 7.50806 105.132 7.11267 104.922 6.76122C104.712 6.42075 104.237 6.21208 103.464 6.14618V5.95947H108.644V6.14618C107.893 6.17913 107.418 6.3878 107.197 6.7722C106.987 7.15661 106.877 7.53002 106.877 7.92541V20.1384C106.877 20.5557 106.954 20.8962 107.098 21.1378C107.241 21.3795 107.44 21.5552 107.694 21.654C107.948 21.7529 108.257 21.8407 108.622 21.9066V22.0824H108.655Z" fill="#1c2024"></path><path d="M124.644 9.09765H124.467C124.39 8.04329 124.081 7.36235 123.54 7.05483C122.998 6.74731 122.347 6.59355 121.563 6.59355H118.337V20.1355C118.337 21.2777 118.923 21.8708 120.094 21.9037V22.0794H114.935V21.9037C115.421 21.8927 115.83 21.7499 116.161 21.4864C116.493 21.2228 116.658 20.7725 116.658 20.1355V6.59355H113.433C112.649 6.59355 111.986 6.74731 111.456 7.05483C110.926 7.36235 110.617 8.04329 110.528 9.09765H110.352V5.15479H110.528C110.65 5.34149 110.749 5.47329 110.838 5.56115C110.926 5.64902 111.036 5.7259 111.18 5.78081C111.324 5.84671 111.478 5.89064 111.666 5.91261C111.854 5.93457 112.075 5.95654 112.329 5.95654H122.833C123.529 5.95654 124.07 5.69295 124.467 5.15479H124.644V9.09765Z" fill="#1c2024"></path><path d="M139.193 13.3375V7.94494C139.193 7.41776 139.049 6.98942 138.762 6.64895C138.475 6.30848 138.033 6.14374 137.426 6.14374V5.95703H142.584V6.14374C141.987 6.14374 141.546 6.30848 141.258 6.63797C140.982 6.96746 140.839 7.40677 140.839 7.93395V20.125C140.839 21.3111 141.413 21.8932 142.573 21.8932V22.0689H137.415V21.8932C137.967 21.8932 138.398 21.7504 138.707 21.4539C139.016 21.1574 139.171 20.718 139.171 20.1469V13.8208H129.882V20.125C129.882 20.6851 130.036 21.1244 130.357 21.4319C130.677 21.7395 131.108 21.8932 131.638 21.8932V22.0689H126.48V21.8932C127.043 21.8932 127.463 21.7395 127.761 21.4319C128.059 21.1244 128.203 20.6851 128.203 20.125V7.94494C128.203 6.7478 127.629 6.15472 126.469 6.15472V5.96801H131.627V6.15472C131.019 6.15472 130.578 6.31947 130.29 6.64895C130.003 6.97844 129.871 7.41776 129.871 7.94494V13.3375H139.16H139.193Z" fill="#1c2024"></path><path d="M145.456 6.14374V5.95703H155.121V8.49408H154.966C154.966 7.1322 154.061 6.46224 152.238 6.46224H148.858V13.7878H151.83C152.415 13.7878 152.945 13.689 153.398 13.5023C153.862 13.3156 154.127 12.8763 154.193 12.1953H154.359V15.8526H154.193C154.127 15.4353 154.005 15.1168 153.818 14.8971C153.63 14.6775 153.453 14.5237 153.276 14.4578C153.1 14.3809 152.934 14.348 152.801 14.348C152.536 14.304 152.26 14.2821 151.973 14.2821H148.858V20.0042C148.858 20.4325 148.947 20.8059 149.112 21.1244C149.278 21.4429 149.665 21.5967 150.261 21.5967H152.669C153.243 21.5967 153.729 21.5088 154.094 21.3441C154.469 21.1793 154.768 20.9377 154.977 20.6412C155.198 20.3446 155.375 19.9822 155.519 19.5539H155.673L155.11 22.0799H145.445V21.9042H145.666C146.009 21.9042 146.351 21.7614 146.682 21.4868C147.014 21.2123 147.179 20.762 147.179 20.125V7.98887C147.179 7.49464 147.069 7.0663 146.848 6.69289C146.627 6.33045 146.23 6.14374 145.677 6.14374H145.456Z" fill="#1c2024"></path><path d="M158.479 6.18767H158.258V5.95703H163.869C164.775 5.95703 165.537 6.09981 166.166 6.37438C166.796 6.64895 167.282 7.00041 167.635 7.42874C167.989 7.85707 168.232 8.30737 168.386 8.77964C168.541 9.2519 168.607 9.72416 168.607 10.1854C168.607 10.7675 168.486 11.3277 168.243 11.8658C168 12.404 167.613 12.8653 167.105 13.2497C166.597 13.6341 165.956 13.8977 165.194 14.0404V14.0844C166.166 14.5566 167.061 15.4792 167.878 16.863L169.347 19.3232C170.01 20.4215 170.54 21.1244 170.938 21.41C171.335 21.7065 171.733 21.8713 172.12 21.9042V22.0799H169.171C169.049 21.9152 168.928 21.7614 168.817 21.6186C168.707 21.4649 168.585 21.3111 168.464 21.1464C168.386 21.0365 168.287 20.8718 168.143 20.6521C168 20.4325 167.911 20.3007 167.889 20.2787L165.956 17.0937C165.57 16.4457 165.172 15.9185 164.763 15.5122C164.355 15.1058 163.979 14.8202 163.626 14.6445C163.272 14.4688 162.952 14.3589 162.676 14.315C162.389 14.2711 162.057 14.2491 161.682 14.2491V20.1469C161.682 21.2892 162.267 21.8822 163.438 21.9262V22.1019H158.28V21.9262C158.6 21.9152 158.887 21.8493 159.141 21.7504C159.395 21.6406 159.594 21.4649 159.76 21.2013C159.926 20.9377 160.003 20.5972 160.003 20.1579V7.94494C160.003 7.30793 159.848 6.84665 159.528 6.58306C159.208 6.31947 158.865 6.18767 158.49 6.18767M161.66 13.8098H162.588C163.56 13.8098 164.355 13.667 164.973 13.3925C165.592 13.1179 166.045 12.7225 166.321 12.2063C166.597 11.6901 166.741 11.0641 166.741 10.3172C166.741 9.69122 166.619 9.08716 166.365 8.49408C166.122 7.901 165.691 7.39579 165.095 7.00041C164.498 6.59404 163.692 6.39635 162.676 6.39635C162.267 6.39635 161.925 6.4293 161.66 6.49519V13.8208V13.8098Z" fill="#1c2024"></path><path d="M190.564 5.95947V6.14618C190.155 6.20109 189.824 6.27797 189.592 6.37682C189.349 6.48665 189.172 6.69532 189.04 7.00284C188.907 7.31037 188.841 7.76066 188.841 8.34276V22.4887H188.731L176.282 8.67224V18.5898C176.282 19.4135 176.316 20.0286 176.382 20.4239C176.448 20.8193 176.548 21.1159 176.669 21.2916C176.945 21.676 177.409 21.8737 178.094 21.9066V22.0824H174.029V21.9066C174.482 21.8847 174.836 21.7858 175.09 21.6211C175.344 21.4454 175.52 21.1378 175.631 20.6766C175.741 20.2153 175.796 19.5343 175.796 18.6118V8.10113L175.255 7.49707C174.78 6.95891 174.394 6.61844 174.107 6.47567C173.819 6.33289 173.466 6.22306 173.035 6.15716V5.97045H176.084L188.344 19.6332V9.21041C188.344 8.43062 188.311 7.84853 188.245 7.45314C188.178 7.06874 188.013 6.76122 187.747 6.5196C187.482 6.28896 187.063 6.15716 186.488 6.1352V5.94849H190.564V5.95947Z" fill="#1c2024"></path><path d="M78.6303 26.6702V26.8569C78.3211 26.8898 78.1001 26.9228 77.9676 26.9447C77.8351 26.9667 77.6915 27.0436 77.5258 27.1644C77.2828 27.3511 77.1171 27.5378 77.0619 27.7026C76.9956 27.8673 76.9625 28.1638 76.9404 28.5812C76.9183 28.6471 76.9183 28.713 76.9404 28.7789L77.5037 40.7502C77.5147 41.2555 77.6362 41.6838 77.8682 42.0572C78.1001 42.4306 78.5861 42.6063 79.3593 42.6173V42.7931H74.1128V42.6173C74.7976 42.5405 75.2725 42.3428 75.5155 42.0243C75.7585 41.7058 75.8579 41.1896 75.8248 40.5086L75.2615 28.1199H75.2173L69.4959 42.7931L64.0837 28.6471H64.0395L63.4541 40.0693C63.4209 40.6953 63.4541 41.1786 63.5645 41.53C63.675 41.8815 63.8407 42.1231 64.0726 42.2769C64.3046 42.4306 64.658 42.5405 65.1219 42.6064V42.7821H61.0352V42.6064C61.5543 42.6064 61.9519 42.4746 62.2281 42.2329C62.5042 41.9913 62.6809 41.6948 62.7582 41.3323C62.8466 40.9699 62.9129 40.4757 62.957 39.8496L63.6087 28.032C63.6087 28.032 63.5645 27.9112 63.4762 27.8014C63.3878 27.6916 63.2774 27.5708 63.1559 27.4609C63.0233 27.3511 62.9018 27.2632 62.7914 27.1973C62.5373 27.0436 62.3275 26.9557 62.1397 26.9338C61.9519 26.9118 61.6979 26.8898 61.3665 26.8679V26.6811H65.133L70.1586 39.8716L75.2505 26.6811H78.6524L78.6303 26.6702Z" fill="#1c2024"></path><path d="M81.2252 26.8569V26.6702H90.8899V29.2072H90.7352C90.7352 27.8453 89.8295 27.1754 88.007 27.1754H84.6272V34.501H87.5984C88.1838 34.501 88.7139 34.4021 89.1668 34.2154C89.6307 34.0287 89.8958 33.5894 89.962 32.9085H90.1277V36.5658H89.962C89.8958 36.1484 89.7743 35.8299 89.5865 35.6102C89.3987 35.3906 89.222 35.2368 89.0453 35.1709C88.8686 35.094 88.7029 35.0611 88.5703 35.0611C88.3053 35.0172 88.0291 34.9952 87.7419 34.9952H84.6272V40.7173C84.6272 41.1456 84.7045 41.519 84.8702 41.8375C85.0358 42.1561 85.4224 42.3098 86.0189 42.3098H88.4268C89.0011 42.3098 89.4871 42.222 89.8516 42.0572C90.2271 41.8925 90.5254 41.6508 90.7352 41.3543C90.9561 41.0578 91.1329 40.6953 91.2764 40.267H91.4311L90.8678 42.7931H81.2031V42.6173H81.424C81.7664 42.6173 82.1088 42.4746 82.4402 42.2C82.7716 41.9254 82.9372 41.4751 82.9372 40.8381V28.691C82.9372 28.1968 82.8268 27.7685 82.6059 27.395C82.385 27.0326 81.9873 26.8459 81.4351 26.8459H81.2142L81.2252 26.8569Z" fill="#1c2024"></path><path d="M107.507 29.8127H107.331C107.253 28.7584 106.944 28.0774 106.403 27.7699C105.862 27.4624 105.21 27.3086 104.426 27.3086H101.201V40.8505C101.201 41.9928 101.786 42.5858 102.957 42.6298V42.8055H97.7986V42.6298C98.2846 42.6188 98.6933 42.476 99.0247 42.2124C99.356 41.9488 99.5217 41.4985 99.5217 40.8615V27.3196H96.2965C95.5123 27.3196 94.8495 27.4734 94.3194 27.7809C93.7892 28.0884 93.4799 28.7694 93.3916 29.8237H93.2148V25.8809H93.3916C93.5131 26.0676 93.6125 26.1994 93.7008 26.2872C93.7892 26.3751 93.8997 26.452 94.0432 26.5069C94.1868 26.5728 94.3415 26.6167 94.5292 26.6387C94.717 26.6606 94.9379 26.6826 95.192 26.6826H105.696C106.392 26.6826 106.933 26.419 107.32 25.8809H107.496V29.8237L107.507 29.8127Z" fill="#1c2024"></path><path d="M109.803 26.9008H109.582V26.6702H115.193C116.099 26.6702 116.861 26.8129 117.49 27.0875C118.12 27.3621 118.606 27.7135 118.959 28.1419C119.313 28.5702 119.556 29.0205 119.711 29.4928C119.865 29.965 119.931 30.4373 119.931 30.8986C119.931 31.4807 119.81 32.0408 119.567 32.579C119.324 33.1171 118.937 33.5784 118.429 33.9628C117.921 34.3472 117.281 34.6108 116.518 34.7536V34.7975C117.49 35.2698 118.385 36.1923 119.202 37.5762L120.672 40.0364C121.334 41.1346 121.864 41.8375 122.262 42.1231C122.66 42.4196 123.057 42.5844 123.444 42.6173V42.7931H120.495C120.373 42.6283 120.252 42.4746 120.141 42.3318C120.031 42.178 119.909 42.0243 119.788 41.8595C119.711 41.7497 119.611 41.5849 119.468 41.3653C119.324 41.1456 119.236 41.0138 119.214 40.9919L117.281 37.8068C116.894 37.1588 116.496 36.6317 116.088 36.2253C115.679 35.8189 115.303 35.5334 114.95 35.3576C114.597 35.1819 114.276 35.0721 114 35.0282C113.713 34.9842 113.382 34.9623 113.006 34.9623V40.8601C113.006 42.0023 113.591 42.5954 114.762 42.6393V42.815H109.604V42.6393C109.924 42.6283 110.212 42.5624 110.466 42.4636C110.72 42.3537 110.919 42.178 111.084 41.9144C111.25 41.6508 111.327 41.3104 111.327 40.8711V28.68C111.327 28.043 111.173 27.5817 110.852 27.3182C110.532 27.0546 110.19 26.9228 109.814 26.9228M112.984 34.512H113.912C114.884 34.512 115.679 34.3692 116.298 34.0946C116.916 33.82 117.369 33.4246 117.645 32.9085C117.921 32.3923 118.065 31.7662 118.065 31.0194C118.065 30.3934 117.943 29.7893 117.689 29.1962C117.435 28.6032 117.016 28.0979 116.419 27.7026C115.823 27.2962 115.016 27.0985 114 27.0985C113.591 27.0985 113.249 27.1314 112.984 27.1973V34.5229V34.512Z" fill="#1c2024"></path><path d="M141.052 34.7429C141.052 36.2586 140.676 37.6534 139.925 38.9604C139.174 40.2564 138.147 41.2887 136.844 42.0575C135.54 42.8263 134.104 43.2108 132.525 43.2108C130.945 43.2108 129.487 42.8263 128.162 42.0575C126.836 41.2887 125.798 40.2454 125.036 38.9494C124.274 37.6424 123.898 36.2146 123.898 34.677C123.898 33.4909 124.13 32.3816 124.572 31.3492C125.025 30.3058 125.655 29.4052 126.461 28.6255C127.267 27.8567 128.195 27.2526 129.233 26.8353C130.272 26.4069 131.354 26.1982 132.481 26.1982C133.607 26.1982 134.657 26.3959 135.673 26.8023C136.689 27.2087 137.606 27.7908 138.423 28.5596C139.229 29.3284 139.87 30.2399 140.334 31.2833C140.798 32.3377 141.03 33.4909 141.03 34.7429M139.108 34.7869C139.108 32.6452 138.721 30.9648 137.959 29.7567C137.197 28.5486 136.313 27.7358 135.319 27.3185C134.325 26.9011 133.386 26.7035 132.503 26.7035C131.818 26.7035 131.111 26.8133 130.382 27.0329C129.653 27.2526 128.935 27.659 128.239 28.252C127.543 28.8451 126.969 29.6798 126.527 30.7452C126.074 31.8215 125.853 33.1394 125.853 34.721C125.853 36.1048 126.041 37.3129 126.406 38.3453C126.781 39.3777 127.289 40.2234 127.941 40.8714C128.593 41.5194 129.3 41.9916 130.084 42.2772C130.868 42.5628 131.674 42.7055 132.525 42.7055C133.276 42.7055 134.049 42.5737 134.822 42.3102C135.595 42.0466 136.302 41.6072 136.943 41.0032C137.584 40.3991 138.103 39.5864 138.5 38.554C138.898 37.5216 139.097 36.2586 139.097 34.7759" fill="#1c2024"></path><path d="M143.667 26.8569V26.6702H148.98C149.864 26.6702 150.648 26.791 151.333 27.0326C152.006 27.2742 152.581 27.6037 153.023 28.0211C153.476 28.4384 153.818 28.9107 154.039 29.4269C154.26 29.9431 154.37 30.4922 154.37 31.0743C154.37 31.6564 154.271 32.1726 154.061 32.6998C153.851 33.216 153.52 33.6882 153.078 34.0946C152.625 34.501 152.04 34.8195 151.311 35.0611C150.582 35.3027 149.753 35.4235 148.803 35.4235C148.505 35.4235 147.92 35.3796 147.058 35.2917V40.8491C147.058 41.9913 147.644 42.5844 148.814 42.6283V42.804H143.656V42.6283C144.164 42.6173 144.573 42.4636 144.904 42.2C145.225 41.9254 145.39 41.4751 145.39 40.8601V28.6691C145.39 28.2956 145.335 27.9881 145.214 27.7355C145.092 27.4829 144.96 27.3072 144.805 27.2083C144.65 27.0985 144.474 27.0216 144.275 26.9777C144.076 26.9228 143.943 26.8898 143.877 26.8788H143.656L143.667 26.8569ZM147.069 27.2413V34.8414C147.633 34.9403 148.196 34.9952 148.748 34.9952C149.797 34.9952 150.692 34.7316 151.421 34.1935C152.15 33.6553 152.515 32.6668 152.515 31.2171C152.515 30.0199 152.194 29.0315 151.554 28.2627C150.913 27.4939 149.941 27.1095 148.627 27.1095C148.119 27.1095 147.599 27.1534 147.069 27.2523" fill="#1c2024"></path><path d="M173.896 34.7429C173.896 36.2586 173.521 37.6534 172.77 38.9604C172.019 40.2564 170.991 41.2887 169.699 42.0575C168.396 42.8263 166.96 43.2108 165.38 43.2108C163.801 43.2108 162.343 42.8263 161.017 42.0575C159.692 41.2887 158.654 40.2454 157.892 38.9494C157.129 37.6424 156.754 36.2146 156.754 34.677C156.754 33.4909 156.986 32.3816 157.428 31.3492C157.881 30.3058 158.51 29.4052 159.316 28.6255C160.123 27.8567 161.051 27.2526 162.089 26.8353C163.127 26.4069 164.209 26.1982 165.336 26.1982C166.463 26.1982 167.512 26.3959 168.528 26.8023C169.544 27.2087 170.461 27.7908 171.278 28.5596C172.085 29.3284 172.725 30.2399 173.189 31.2833C173.653 32.3377 173.885 33.4909 173.885 34.7429M171.952 34.7869C171.952 32.6452 171.566 30.9648 170.804 29.7567C170.041 28.5486 169.158 27.7358 168.164 27.3185C167.17 26.9011 166.231 26.7035 165.347 26.7035C164.662 26.7035 163.955 26.8133 163.226 27.0329C162.497 27.2526 161.78 27.659 161.084 28.252C160.388 28.8451 159.813 29.6798 159.372 30.7452C158.919 31.8215 158.698 33.1394 158.698 34.721C158.698 36.1048 158.886 37.3129 159.25 38.3453C159.626 39.3777 160.134 40.2234 160.785 40.8714C161.437 41.5194 162.144 41.9916 162.928 42.2772C163.712 42.5628 164.519 42.7055 165.369 42.7055C166.12 42.7055 166.893 42.5737 167.667 42.3102C168.44 42.0466 169.147 41.6072 169.787 41.0032C170.428 40.3991 170.947 39.5864 171.345 38.554C171.742 37.5216 171.941 36.2586 171.941 34.7759" fill="#1c2024"></path><path d="M176.492 42.6193H176.712C177.11 42.6193 177.464 42.4655 177.762 42.158C178.071 41.8505 178.215 41.4112 178.215 40.851V28.682C178.215 28.012 178.038 27.5398 177.706 27.2872C177.364 27.0236 176.955 26.8808 176.492 26.8698V26.6831H181.672V26.8698C181.219 26.8808 180.81 27.0236 180.457 27.2762C180.103 27.5288 179.927 28.0011 179.927 28.682V40.4447C179.927 41.1476 180.103 41.6308 180.457 41.8944C180.81 42.169 181.385 42.3008 182.18 42.3008H183.583C184.19 42.3008 184.676 42.2239 185.041 42.0811C185.405 41.9384 185.692 41.7077 185.902 41.4112C186.112 41.1146 186.333 40.6863 186.554 40.1372H186.742L186.123 42.784H176.48V42.6083L176.492 42.6193Z" fill="#1c2024"></path><path d="M193.471 26.6702V26.8569C192.985 26.8569 192.577 26.9887 192.234 27.2632C191.892 27.5378 191.726 27.9771 191.726 28.6141V40.8491C191.726 41.4641 191.903 41.9144 192.267 42.2C192.621 42.4855 193.03 42.6173 193.471 42.6173V42.7931H188.324V42.6173C188.799 42.6173 189.197 42.4855 189.539 42.211C189.882 41.9364 190.047 41.4861 190.047 40.8491V28.6141C190.047 27.9442 189.882 27.4829 189.539 27.2303C189.197 26.9777 188.788 26.8569 188.324 26.8569V26.6702H193.471Z" fill="#1c2024"></path><path d="M209.507 29.8127H209.331C209.253 28.7584 208.944 28.0774 208.414 27.7699C207.873 27.4624 207.221 27.3086 206.426 27.3086H203.201V40.8505C203.201 41.9928 203.786 42.5858 204.957 42.6298V42.8055H199.799V42.6298C200.285 42.6188 200.693 42.476 201.025 42.2124C201.356 41.9488 201.522 41.4985 201.522 40.8615V27.3196H198.296C197.512 27.3196 196.85 27.4734 196.319 27.7809C195.789 28.0884 195.48 28.7694 195.392 29.8237H195.215V25.8809H195.392C195.513 26.0676 195.612 26.1994 195.701 26.2872C195.789 26.3751 195.9 26.452 196.043 26.5069C196.187 26.5728 196.341 26.6167 196.529 26.6387C196.717 26.6606 196.938 26.6826 197.192 26.6826H207.696C208.392 26.6826 208.933 26.419 209.32 25.8809H209.496V29.8237L209.507 29.8127Z" fill="#1c2024"></path><path d="M217.67 26.4753L222.518 40.2918C222.772 41.0057 223.015 41.5219 223.247 41.8514C223.479 42.1699 223.7 42.3786 223.899 42.4555C224.109 42.5433 224.374 42.5982 224.694 42.6202V42.7959H219.404V42.6202C219.945 42.6202 220.365 42.5653 220.663 42.4664C220.961 42.3676 221.105 42.082 221.105 41.6317C221.105 41.3791 221.038 41.0496 220.895 40.6323C220.862 40.5774 220.851 40.5334 220.851 40.5005L219.415 36.2172H213.804L212.511 40.182C212.335 40.7202 212.246 41.1595 212.246 41.489C212.246 41.9393 212.357 42.2468 212.589 42.3896C212.821 42.5433 213.141 42.6092 213.561 42.6092V42.7849H209.75V42.6092C210.291 42.5543 210.733 42.3566 211.053 41.9942C211.385 41.6317 211.661 41.0826 211.904 40.3467L216.488 26.4644H217.681L217.67 26.4753ZM213.98 35.6461H219.139L216.499 27.991H216.455L213.98 35.6461Z" fill="#1c2024"></path><path d="M243.142 26.6726V26.8593C242.733 26.9142 242.401 26.9911 242.17 27.09C241.927 27.1998 241.75 27.4085 241.617 27.716C241.485 28.0235 241.418 28.4738 241.418 29.0559V43.2019H241.308L228.86 29.3854V39.3029C228.86 40.1267 228.893 40.7417 228.959 41.1371C229.026 41.5325 229.125 41.829 229.247 42.0047C229.523 42.3891 229.987 42.5868 230.66 42.6198V42.7955H226.596V42.6198C227.048 42.5978 227.402 42.499 227.656 42.3342C227.91 42.1585 228.087 41.851 228.197 41.3897C228.308 40.9284 228.363 40.2475 228.363 39.3249V28.8033L227.822 28.1992C227.347 27.6611 226.96 27.3206 226.673 27.1778C226.386 27.035 226.032 26.9252 225.602 26.8593V26.6726H228.65L240.91 40.3353V29.9235C240.91 29.1438 240.877 28.5617 240.811 28.1663C240.745 27.7819 240.579 27.4744 240.314 27.2327C240.049 27.0021 239.629 26.8703 239.055 26.8483V26.6616H243.13L243.142 26.6726Z" fill="#1c2024"></path><path d="M41.0227 7.71688C31.6563 -1.89315 16.4469 -1.91512 7.04739 7.67295C-2.34111 17.261 -2.3632 31.6596 7.00321 41.2696C16.1487 50.649 31.8993 50.5392 40.9785 41.2696C50.3671 31.6816 50.3891 17.3269 41.0227 7.7059M17.0544 38.5349C12.9898 35.921 11.7748 29.2214 13.774 22.4889C12.813 28.0462 16.5243 33.351 22.1132 34.3504C26.697 35.1741 31.1482 32.8787 33.2137 28.9688C33.0701 29.2873 32.9265 29.6058 32.7719 29.9243C28.9281 37.7881 21.8923 41.6431 17.0544 38.5349ZM18.5897 16.0419C21.6272 14.5373 26.5203 16.9645 29.5135 21.4565C32.5068 25.9485 32.4847 30.8139 29.4473 32.3186C26.4098 33.8232 21.5167 31.396 18.5235 26.904C15.5302 22.412 15.5633 17.5466 18.5897 16.0419ZM25.9238 14.0101C21.6714 13.2413 17.5404 15.1633 15.3093 18.568C19.1641 10.7701 26.1668 6.97004 30.9715 10.0672C35.1245 12.7361 36.2953 19.6553 34.1305 26.5306C34.1746 26.3658 34.2078 26.2011 34.2409 26.0364C35.2902 20.4131 31.568 15.0315 25.9238 14.0211M0.353943 24.3889C0.353943 16.5252 8.57164 9.80363 19.4513 8.30996C12.0178 10.4077 6.8044 17.4367 7.33457 25.4103C7.84266 33.0984 13.531 39.2158 20.7877 40.6216C9.24541 39.5343 0.353943 32.681 0.353943 24.3889ZM27.1167 40.6326C35.3123 39.095 41.2657 31.6816 40.7024 23.1918C40.2275 15.998 35.2239 10.188 28.641 8.30996C39.4985 9.80363 47.683 16.4373 47.683 24.3889C47.683 32.3405 38.7253 39.5893 27.1167 40.6326Z" class="fill-[--logo-detail-color]"></path></svg>